@startuml
class Organisation <<abstract>>{
  sigle : string {key}
  nom : string
}

class Laboratoire{
  logo : image
  thmatique_etude : text
}

class Projet{
  date_start : date
  date_end : date
  description : text
}

class Departement{
  domaine : text
}


class PosteTele{
  numInt : int {key}
  numExt : int
  typeTele : typetele
  modeleTele : image
  marque : text
}

class typetele <<datatype>>{
  value:{VOIP,TOIP,Landline}
}

class Employe{
  numBadge : string {key}
  nom : string
  prenom : string
  e-mail : string
  statut : etat
  emplacement : text
}

class etat <<datatype>>{
  value:{CDI,CDD,stagiaire}
}

class MoyenIT{
  nomIT : string {key}
  typeIT : typeit
  OS : string
  addrMAC[0..3] : string
}

class typeit <<datatype>>{
  value:{PC,portable,serveur}
}

class Machine{
  codeMach : string {key}
  modeleMach : image
  description : text
  puissanceElec : int
  besoinTriphase : bool
  besoinResaux : bool
  besoinGaz : gaz
  NCM : int
  EM : string
  taille : int
}

class gaz <<datatype>>{
  value:{Butane, méthane, oxygène, azote, hydrogène, hélium}
}



class Salle{
  nomS : string {key}
  superficieS : int
  capaciteHumMax : int
  photos[1..5] : image
  planSalle : image
  airComprime : bool
  gazSpec[0..10] : gaz
  elecTriphase : bool
  nbPriseElec : int
  nbPriseResaux : int
}

class Etage{
  numEtage : int {local key}
  planEtage : image
}

class Batiment{
  nomB : string {key}
  superficieB : int
  addrGPS : string
  nbEtage : int
}

class RHlabo{
  directeur : bool
  {method} bool droit_direc
}

class RHdepartement{
  directeur : bool
  {method} bool droit_direc
}

class RHprojet{
  chef : bool
  role : string
  {method} bool droit_chef
}

Organisation <|-- Laboratoire
Organisation <|-- Projet
Organisation <|-- Departement
Laboratoire "1"-"*" Projet : possede >
Projet "*"-"1" Departement : possede <
Laboratoire "1"--"2..*" Employe 
(Laboratoire , Employe) . RHlabo
Projet "1"--"2..*" Employe 
(Projet , Employe) . RHprojet
Departement "1"--"2..*" Employe 
(Departement , Employe) . RHdepartement
PosteTele "1"-"0..1" Employe : possede <
Employe "0..1"-"*" MoyenIT : etre responsable de >
MoyenIT "*"-"1" Machine : etre lié à >
PosteTele "1..*"--"1" Salle : se trouver dans >
Employe "1..*"--"1" Salle : se trouver dans >
MoyenIT "*"--"1" Salle : se trouver dans >
Machine "*"--"1" Salle : se trouver dans >
Salle "1..*"--"1" Etage : possede <
Salle -* Batiment
Etage -* Batiment
@enduml